<?xml version="1.0" encoding="UTF-8" standalone="no"?>
<!DOCTYPE svg PUBLIC "-//W3C//DTD SVG 1.1//EN"
 "http://www.w3.org/Graphics/SVG/1.1/DTD/svg11.dtd">
<!-- Generated by graphviz version 2.40.1 (0)
 -->
<!-- Title: neutron&#45;extensions&#45;requirements Pages: 1 -->
<svg width="6332pt" height="332pt"
 viewBox="0.00 0.00 6332.33 332.00" xmlns="http://www.w3.org/2000/svg" xmlns:xlink="http://www.w3.org/1999/xlink">
<g id="graph0" class="graph" transform="scale(1 1) rotate(0) translate(4 328)">
<title>neutron&#45;extensions&#45;requirements</title>
<polygon fill="#ffffff" stroke="transparent" points="-4,4 -4,-328 6328.3258,-328 6328.3258,4 -4,4"/>
<!-- l3&#45;flavors -->
<g id="node1" class="node">
<title>l3&#45;flavors</title>
<ellipse fill="none" stroke="#000000" cx="723.6909" cy="-162" rx="53.8905" ry="18"/>
<text text-anchor="middle" x="723.6909" y="-158.3" font-family="Times,serif" font-size="14.00" fill="#000000">l3&#45;flavors</text>
</g>
<!-- flavors -->
<g id="node2" class="node">
<title>flavors</title>
<ellipse fill="none" stroke="#000000" cx="723.6909" cy="-90" rx="42.4939" ry="18"/>
<text text-anchor="middle" x="723.6909" y="-86.3" font-family="Times,serif" font-size="14.00" fill="#000000">flavors</text>
</g>
<!-- l3&#45;flavors&#45;&gt;flavors -->
<g id="edge1" class="edge">
<title>l3&#45;flavors&#45;&gt;flavors</title>
<path fill="none" stroke="#000000" d="M723.6909,-143.8314C723.6909,-136.131 723.6909,-126.9743 723.6909,-118.4166"/>
<polygon fill="#000000" stroke="#000000" points="727.191,-118.4132 723.6909,-108.4133 720.191,-118.4133 727.191,-118.4132"/>
</g>
<!-- router -->
<g id="node3" class="node">
<title>router</title>
<ellipse fill="none" stroke="#000000" cx="1759.6909" cy="-90" rx="40.0939" ry="18"/>
<text text-anchor="middle" x="1759.6909" y="-86.3" font-family="Times,serif" font-size="14.00" fill="#000000">router</text>
</g>
<!-- l3&#45;flavors&#45;&gt;router -->
<g id="edge2" class="edge">
<title>l3&#45;flavors&#45;&gt;router</title>
<path fill="none" stroke="#000000" d="M762.7006,-149.396C770.5705,-147.2677 778.8389,-145.3226 786.6909,-144 877.8725,-128.6417 1522.8996,-100.134 1709.3387,-92.1357"/>
<polygon fill="#000000" stroke="#000000" points="1709.5732,-95.629 1719.4143,-91.7043 1709.2737,-88.6354 1709.5732,-95.629"/>
</g>
<!-- net&#45;mtu&#45;writable -->
<g id="node4" class="node">
<title>net&#45;mtu&#45;writable</title>
<ellipse fill="none" stroke="#000000" cx="3771.6909" cy="-306" rx="89.0842" ry="18"/>
<text text-anchor="middle" x="3771.6909" y="-302.3" font-family="Times,serif" font-size="14.00" fill="#000000">net&#45;mtu&#45;writable</text>
</g>
<!-- net&#45;mtu -->
<g id="node5" class="node">
<title>net&#45;mtu</title>
<ellipse fill="none" stroke="#000000" cx="3771.6909" cy="-234" rx="47.3916" ry="18"/>
<text text-anchor="middle" x="3771.6909" y="-230.3" font-family="Times,serif" font-size="14.00" fill="#000000">net&#45;mtu</text>
</g>
<!-- net&#45;mtu&#45;writable&#45;&gt;net&#45;mtu -->
<g id="edge3" class="edge">
<title>net&#45;mtu&#45;writable&#45;&gt;net&#45;mtu</title>
<path fill="none" stroke="#000000" d="M3771.6909,-287.8314C3771.6909,-280.131 3771.6909,-270.9743 3771.6909,-262.4166"/>
<polygon fill="#000000" stroke="#000000" points="3775.191,-262.4132 3771.6909,-252.4133 3768.191,-262.4133 3775.191,-262.4132"/>
</g>
<!-- auto&#45;allocated&#45;topology -->
<g id="node6" class="node">
<title>auto&#45;allocated&#45;topology</title>
<ellipse fill="none" stroke="#000000" cx="531.6909" cy="-162" rx="119.6788" ry="18"/>
<text text-anchor="middle" x="531.6909" y="-158.3" font-family="Times,serif" font-size="14.00" fill="#000000">auto&#45;allocated&#45;topology</text>
</g>
<!-- auto&#45;allocated&#45;topology&#45;&gt;router -->
<g id="edge4" class="edge">
<title>auto&#45;allocated&#45;topology&#45;&gt;router</title>
<path fill="none" stroke="#000000" d="M615.8736,-149.1471C630.7771,-147.1879 646.1698,-145.3671 660.6909,-144 1063.6639,-106.0623 1552.4283,-93.9325 1708.9248,-90.8784"/>
<polygon fill="#000000" stroke="#000000" points="1709.2498,-94.3729 1719.1809,-90.682 1709.1157,-87.3742 1709.2498,-94.3729"/>
</g>
<!-- subnet_allocation -->
<g id="node7" class="node">
<title>subnet_allocation</title>
<ellipse fill="none" stroke="#000000" cx="308.6909" cy="-90" rx="92.8835" ry="18"/>
<text text-anchor="middle" x="308.6909" y="-86.3" font-family="Times,serif" font-size="14.00" fill="#000000">subnet_allocation</text>
</g>
<!-- auto&#45;allocated&#45;topology&#45;&gt;subnet_allocation -->
<g id="edge5" class="edge">
<title>auto&#45;allocated&#45;topology&#45;&gt;subnet_allocation</title>
<path fill="none" stroke="#000000" d="M481.0887,-145.6621C447.025,-134.6639 402.0225,-120.134 366.5386,-108.6773"/>
<polygon fill="#000000" stroke="#000000" points="367.3914,-105.2748 356.7997,-105.5329 365.2406,-111.9362 367.3914,-105.2748"/>
</g>
<!-- external&#45;net -->
<g id="node8" class="node">
<title>external&#45;net</title>
<ellipse fill="none" stroke="#000000" cx="531.6909" cy="-90" rx="67.6881" ry="18"/>
<text text-anchor="middle" x="531.6909" y="-86.3" font-family="Times,serif" font-size="14.00" fill="#000000">external&#45;net</text>
</g>
<!-- auto&#45;allocated&#45;topology&#45;&gt;external&#45;net -->
<g id="edge6" class="edge">
<title>auto&#45;allocated&#45;topology&#45;&gt;external&#45;net</title>
<path fill="none" stroke="#000000" d="M531.6909,-143.8314C531.6909,-136.131 531.6909,-126.9743 531.6909,-118.4166"/>
<polygon fill="#000000" stroke="#000000" points="535.191,-118.4132 531.6909,-108.4133 528.191,-118.4133 535.191,-118.4132"/>
</g>
<!-- logging&#45;resource -->
<g id="node9" class="node">
<title>logging&#45;resource</title>
<ellipse fill="none" stroke="#000000" cx="3967.6909" cy="-306" rx="89.0842" ry="18"/>
<text text-anchor="middle" x="3967.6909" y="-302.3" font-family="Times,serif" font-size="14.00" fill="#000000">logging&#45;resource</text>
</g>
<!-- fwaas -->
<g id="node10" class="node">
<title>fwaas</title>
<ellipse fill="none" stroke="#000000" cx="3967.6909" cy="-234" rx="37.8943" ry="18"/>
<text text-anchor="middle" x="3967.6909" y="-230.3" font-family="Times,serif" font-size="14.00" fill="#000000">fwaas</text>
</g>
<!-- logging&#45;resource&#45;&gt;fwaas -->
<g id="edge7" class="edge">
<title>logging&#45;resource&#45;&gt;fwaas</title>
<path fill="none" stroke="#000000" d="M3967.6909,-287.8314C3967.6909,-280.131 3967.6909,-270.9743 3967.6909,-262.4166"/>
<polygon fill="#000000" stroke="#000000" points="3971.191,-262.4132 3967.6909,-252.4133 3964.191,-262.4133 3971.191,-262.4132"/>
</g>
<!-- vpnaas -->
<g id="node11" class="node">
<title>vpnaas</title>
<ellipse fill="none" stroke="#000000" cx="1854.6909" cy="-162" rx="43.5923" ry="18"/>
<text text-anchor="middle" x="1854.6909" y="-158.3" font-family="Times,serif" font-size="14.00" fill="#000000">vpnaas</text>
</g>
<!-- vpnaas&#45;&gt;router -->
<g id="edge8" class="edge">
<title>vpnaas&#45;&gt;router</title>
<path fill="none" stroke="#000000" d="M1833.6073,-146.0209C1820.3557,-135.9775 1803.0819,-122.8859 1788.5657,-111.8841"/>
<polygon fill="#000000" stroke="#000000" points="1790.4725,-108.9376 1780.3887,-105.6867 1786.2443,-114.5164 1790.4725,-108.9376"/>
</g>
<!-- network_availability_zone -->
<g id="node12" class="node">
<title>network_availability_zone</title>
<ellipse fill="none" stroke="#000000" cx="3497.6909" cy="-162" rx="131.8766" ry="18"/>
<text text-anchor="middle" x="3497.6909" y="-158.3" font-family="Times,serif" font-size="14.00" fill="#000000">network_availability_zone</text>
</g>
<!-- availability_zone -->
<g id="node13" class="node">
<title>availability_zone</title>
<ellipse fill="none" stroke="#000000" cx="3231.6909" cy="-90" rx="88.2844" ry="18"/>
<text text-anchor="middle" x="3231.6909" y="-86.3" font-family="Times,serif" font-size="14.00" fill="#000000">availability_zone</text>
</g>
<!-- network_availability_zone&#45;&gt;availability_zone -->
<g id="edge9" class="edge">
<title>network_availability_zone&#45;&gt;availability_zone</title>
<path fill="none" stroke="#000000" d="M3437.9953,-145.8418C3395.3636,-134.3024 3338.1187,-118.8075 3294.7454,-107.0674"/>
<polygon fill="#000000" stroke="#000000" points="3295.4428,-103.6303 3284.8757,-104.3959 3293.6138,-110.3871 3295.4428,-103.6303"/>
</g>
<!-- agent -->
<g id="node20" class="node">
<title>agent</title>
<ellipse fill="none" stroke="#000000" cx="3342.6909" cy="-18" rx="37.0935" ry="18"/>
<text text-anchor="middle" x="3342.6909" y="-14.3" font-family="Times,serif" font-size="14.00" fill="#000000">agent</text>
</g>
<!-- availability_zone&#45;&gt;agent -->
<g id="edge14" class="edge">
<title>availability_zone&#45;&gt;agent</title>
<path fill="none" stroke="#000000" d="M3258.2782,-72.7542C3274.4448,-62.2677 3295.1525,-48.8357 3312.0117,-37.9"/>
<polygon fill="#000000" stroke="#000000" points="3313.9478,-40.816 3320.4327,-32.4377 3310.1384,-34.9433 3313.9478,-40.816"/>
</g>
<!-- binding&#45;extended -->
<g id="node14" class="node">
<title>binding&#45;extended</title>
<ellipse fill="none" stroke="#000000" cx="4114.6909" cy="-234" rx="91.784" ry="18"/>
<text text-anchor="middle" x="4114.6909" y="-230.3" font-family="Times,serif" font-size="14.00" fill="#000000">binding&#45;extended</text>
</g>
<!-- binding -->
<g id="node15" class="node">
<title>binding</title>
<ellipse fill="none" stroke="#000000" cx="4187.6909" cy="-162" rx="46.2923" ry="18"/>
<text text-anchor="middle" x="4187.6909" y="-158.3" font-family="Times,serif" font-size="14.00" fill="#000000">binding</text>
</g>
<!-- binding&#45;extended&#45;&gt;binding -->
<g id="edge10" class="edge">
<title>binding&#45;extended&#45;&gt;binding</title>
<path fill="none" stroke="#000000" d="M4132.7358,-216.2022C4141.8873,-207.1761 4153.1393,-196.0783 4163.0732,-186.2804"/>
<polygon fill="#000000" stroke="#000000" points="4165.6943,-188.6113 4170.3562,-179.0972 4160.7788,-183.6275 4165.6943,-188.6113"/>
</g>
<!-- vpn&#45;endpoint&#45;groups -->
<g id="node16" class="node">
<title>vpn&#45;endpoint&#45;groups</title>
<ellipse fill="none" stroke="#000000" cx="1614.6909" cy="-234" rx="106.6812" ry="18"/>
<text text-anchor="middle" x="1614.6909" y="-230.3" font-family="Times,serif" font-size="14.00" fill="#000000">vpn&#45;endpoint&#45;groups</text>
</g>
<!-- vpn&#45;endpoint&#45;groups&#45;&gt;vpnaas -->
<g id="edge11" class="edge">
<title>vpn&#45;endpoint&#45;groups&#45;&gt;vpnaas</title>
<path fill="none" stroke="#000000" d="M1671.279,-218.5977C1708.7224,-208.1973 1758.8211,-193.8824 1802.6909,-180 1805.6468,-179.0646 1808.6889,-178.0771 1811.7479,-177.0658"/>
<polygon fill="#000000" stroke="#000000" points="1813.1282,-180.2943 1821.4906,-173.7889 1810.8966,-173.6595 1813.1282,-180.2943"/>
</g>
<!-- qos&#45;bw&#45;limit&#45;direction -->
<g id="node17" class="node">
<title>qos&#45;bw&#45;limit&#45;direction</title>
<ellipse fill="none" stroke="#000000" cx="4461.6909" cy="-306" rx="112.3801" ry="18"/>
<text text-anchor="middle" x="4461.6909" y="-302.3" font-family="Times,serif" font-size="14.00" fill="#000000">qos&#45;bw&#45;limit&#45;direction</text>
</g>
<!-- qos -->
<g id="node18" class="node">
<title>qos</title>
<ellipse fill="none" stroke="#000000" cx="4654.6909" cy="-234" rx="27" ry="18"/>
<text text-anchor="middle" x="4654.6909" y="-230.3" font-family="Times,serif" font-size="14.00" fill="#000000">qos</text>
</g>
<!-- qos&#45;bw&#45;limit&#45;direction&#45;&gt;qos -->
<g id="edge12" class="edge">
<title>qos&#45;bw&#45;limit&#45;direction&#45;&gt;qos</title>
<path fill="none" stroke="#000000" d="M4506.4541,-289.3008C4541.522,-276.2184 4589.5316,-258.3081 4621.2959,-246.4582"/>
<polygon fill="#000000" stroke="#000000" points="4622.8552,-249.6122 4631.0011,-242.8376 4620.4085,-243.0537 4622.8552,-249.6122"/>
</g>
<!-- vpn&#45;flavors -->
<g id="node19" class="node">
<title>vpn&#45;flavors</title>
<ellipse fill="none" stroke="#000000" cx="1427.6909" cy="-234" rx="62.2891" ry="18"/>
<text text-anchor="middle" x="1427.6909" y="-230.3" font-family="Times,serif" font-size="14.00" fill="#000000">vpn&#45;flavors</text>
</g>
<!-- vpn&#45;flavors&#45;&gt;vpnaas -->
<g id="edge13" class="edge">
<title>vpn&#45;flavors&#45;&gt;vpnaas</title>
<path fill="none" stroke="#000000" d="M1472.9479,-221.5898C1481.4576,-219.5233 1490.3133,-217.5511 1498.6909,-216 1632.4722,-191.2298 1670.0821,-210.4288 1802.6909,-180 1806.0517,-179.2288 1809.4985,-178.3173 1812.9403,-177.3203"/>
<polygon fill="#000000" stroke="#000000" points="1814.0423,-180.643 1822.5508,-174.3299 1811.9625,-173.9591 1814.0423,-180.643"/>
</g>
<!-- expose&#45;port&#45;forwarding&#45;in&#45;fip -->
<g id="node21" class="node">
<title>expose&#45;port&#45;forwarding&#45;in&#45;fip</title>
<ellipse fill="none" stroke="#000000" cx="1885.6909" cy="-234" rx="146.4744" ry="18"/>
<text text-anchor="middle" x="1885.6909" y="-230.3" font-family="Times,serif" font-size="14.00" fill="#000000">expose&#45;port&#45;forwarding&#45;in&#45;fip</text>
</g>
<!-- expose&#45;port&#45;forwarding&#45;in&#45;fip&#45;&gt;router -->
<g id="edge15" class="edge">
<title>expose&#45;port&#45;forwarding&#45;in&#45;fip&#45;&gt;router</title>
<path fill="none" stroke="#000000" d="M1994.412,-221.8815C2078.0693,-211.4337 2181.5738,-195.6082 2194.6909,-180 2204.9848,-167.7511 2205.2848,-155.9904 2194.6909,-144 2169.5521,-115.5476 1919.2641,-98.6399 1810.1295,-92.5678"/>
<polygon fill="#000000" stroke="#000000" points="1810.1975,-89.0664 1800.021,-92.014 1809.8145,-96.0559 1810.1975,-89.0664"/>
</g>
<!-- floating&#45;ip&#45;port&#45;forwarding -->
<g id="node22" class="node">
<title>floating&#45;ip&#45;port&#45;forwarding</title>
<ellipse fill="none" stroke="#000000" cx="2050.6909" cy="-162" rx="134.5761" ry="18"/>
<text text-anchor="middle" x="2050.6909" y="-158.3" font-family="Times,serif" font-size="14.00" fill="#000000">floating&#45;ip&#45;port&#45;forwarding</text>
</g>
<!-- expose&#45;port&#45;forwarding&#45;in&#45;fip&#45;&gt;floating&#45;ip&#45;port&#45;forwarding -->
<g id="edge16" class="edge">
<title>expose&#45;port&#45;forwarding&#45;in&#45;fip&#45;&gt;floating&#45;ip&#45;port&#45;forwarding</title>
<path fill="none" stroke="#000000" d="M1925.6328,-216.5708C1948.5348,-206.5772 1977.4622,-193.9543 2001.7258,-183.3666"/>
<polygon fill="#000000" stroke="#000000" points="2003.3512,-186.4761 2011.1168,-179.2687 2000.5516,-180.0603 2003.3512,-186.4761"/>
</g>
<!-- floating&#45;ip&#45;port&#45;forwarding&#45;&gt;router -->
<g id="edge20" class="edge">
<title>floating&#45;ip&#45;port&#45;forwarding&#45;&gt;router</title>
<path fill="none" stroke="#000000" d="M1986.4695,-146.1102C1931.4656,-132.501 1853.6447,-113.2463 1804.9565,-101.1997"/>
<polygon fill="#000000" stroke="#000000" points="1805.5758,-97.7475 1795.0278,-98.7432 1803.8945,-104.5426 1805.5758,-97.7475"/>
</g>
<!-- standard&#45;attr&#45;bgpvpn&#45;router&#45;association -->
<g id="node23" class="node">
<title>standard&#45;attr&#45;bgpvpn&#45;router&#45;association</title>
<ellipse fill="none" stroke="#000000" cx="3164.6909" cy="-234" rx="197.665" ry="18"/>
<text text-anchor="middle" x="3164.6909" y="-230.3" font-family="Times,serif" font-size="14.00" fill="#000000">standard&#45;attr&#45;bgpvpn&#45;router&#45;association</text>
</g>
<!-- bgpvpn -->
<g id="node24" class="node">
<title>bgpvpn</title>
<ellipse fill="none" stroke="#000000" cx="2286.6909" cy="-162" rx="45.4919" ry="18"/>
<text text-anchor="middle" x="2286.6909" y="-158.3" font-family="Times,serif" font-size="14.00" fill="#000000">bgpvpn</text>
</g>
<!-- standard&#45;attr&#45;bgpvpn&#45;router&#45;association&#45;&gt;bgpvpn -->
<g id="edge17" class="edge">
<title>standard&#45;attr&#45;bgpvpn&#45;router&#45;association&#45;&gt;bgpvpn</title>
<path fill="none" stroke="#000000" d="M3025.1136,-221.2532C3002.903,-219.3836 2980.1741,-217.564 2958.6909,-216 2684.2848,-196.0232 2610.8736,-231.9527 2340.6909,-180 2337.0305,-179.2962 2333.2765,-178.409 2329.5359,-177.4077"/>
<polygon fill="#000000" stroke="#000000" points="2330.3199,-173.9904 2319.7392,-174.5387 2328.3524,-180.7082 2330.3199,-173.9904"/>
</g>
<!-- bgpvpn&#45;&gt;router -->
<g id="edge32" class="edge">
<title>bgpvpn&#45;&gt;router</title>
<path fill="none" stroke="#000000" d="M2252.0206,-150.2805C2244.0954,-147.9219 2235.6586,-145.6608 2227.6909,-144 2077.4644,-112.6871 1896.0563,-98.2669 1809.8663,-92.7976"/>
<polygon fill="#000000" stroke="#000000" points="1810.0337,-89.3014 1799.8358,-92.1745 1809.5995,-96.2879 1810.0337,-89.3014"/>
</g>
<!-- bgpvpn&#45;vni -->
<g id="node25" class="node">
<title>bgpvpn&#45;vni</title>
<ellipse fill="none" stroke="#000000" cx="3442.6909" cy="-234" rx="62.2891" ry="18"/>
<text text-anchor="middle" x="3442.6909" y="-230.3" font-family="Times,serif" font-size="14.00" fill="#000000">bgpvpn&#45;vni</text>
</g>
<!-- bgpvpn&#45;vni&#45;&gt;bgpvpn -->
<g id="edge18" class="edge">
<title>bgpvpn&#45;vni&#45;&gt;bgpvpn</title>
<path fill="none" stroke="#000000" d="M3398.2892,-221.2002C3389.5392,-219.1167 3380.3774,-217.2383 3371.6909,-216 2917.7781,-151.2945 2791.9214,-261.3305 2340.6909,-180 2336.9709,-179.3295 2333.1571,-178.4575 2329.3604,-177.4593"/>
<polygon fill="#000000" stroke="#000000" points="2330.0064,-174.0023 2319.427,-174.5734 2328.0535,-180.7244 2330.0064,-174.0023"/>
</g>
<!-- sfc -->
<g id="node26" class="node">
<title>sfc</title>
<ellipse fill="none" stroke="#000000" cx="4991.6909" cy="-306" rx="27" ry="18"/>
<text text-anchor="middle" x="4991.6909" y="-302.3" font-family="Times,serif" font-size="14.00" fill="#000000">sfc</text>
</g>
<!-- flow_classifier -->
<g id="node27" class="node">
<title>flow_classifier</title>
<ellipse fill="none" stroke="#000000" cx="4991.6909" cy="-234" rx="77.1866" ry="18"/>
<text text-anchor="middle" x="4991.6909" y="-230.3" font-family="Times,serif" font-size="14.00" fill="#000000">flow_classifier</text>
</g>
<!-- sfc&#45;&gt;flow_classifier -->
<g id="edge19" class="edge">
<title>sfc&#45;&gt;flow_classifier</title>
<path fill="none" stroke="#000000" d="M4991.6909,-287.8314C4991.6909,-280.131 4991.6909,-270.9743 4991.6909,-262.4166"/>
<polygon fill="#000000" stroke="#000000" points="4995.191,-262.4132 4991.6909,-252.4133 4988.191,-262.4133 4995.191,-262.4132"/>
</g>
<!-- qos&#45;default -->
<g id="node28" class="node">
<title>qos&#45;default</title>
<ellipse fill="none" stroke="#000000" cx="4654.6909" cy="-306" rx="62.2891" ry="18"/>
<text text-anchor="middle" x="4654.6909" y="-302.3" font-family="Times,serif" font-size="14.00" fill="#000000">qos&#45;default</text>
</g>
<!-- qos&#45;default&#45;&gt;qos -->
<g id="edge21" class="edge">
<title>qos&#45;default&#45;&gt;qos</title>
<path fill="none" stroke="#000000" d="M4654.6909,-287.8314C4654.6909,-280.131 4654.6909,-270.9743 4654.6909,-262.4166"/>
<polygon fill="#000000" stroke="#000000" points="4658.191,-262.4132 4654.6909,-252.4133 4651.191,-262.4133 4658.191,-262.4132"/>
</g>
<!-- availability_zone_filter -->
<g id="node29" class="node">
<title>availability_zone_filter</title>
<ellipse fill="none" stroke="#000000" cx="3231.6909" cy="-162" rx="116.1796" ry="18"/>
<text text-anchor="middle" x="3231.6909" y="-158.3" font-family="Times,serif" font-size="14.00" fill="#000000">availability_zone_filter</text>
</g>
<!-- availability_zone_filter&#45;&gt;availability_zone -->
<g id="edge22" class="edge">
<title>availability_zone_filter&#45;&gt;availability_zone</title>
<path fill="none" stroke="#000000" d="M3231.6909,-143.8314C3231.6909,-136.131 3231.6909,-126.9743 3231.6909,-118.4166"/>
<polygon fill="#000000" stroke="#000000" points="3235.191,-118.4132 3231.6909,-108.4133 3228.191,-118.4133 3235.191,-118.4132"/>
</g>
<!-- floatingip&#45;pools -->
<g id="node30" class="node">
<title>floatingip&#45;pools</title>
<ellipse fill="none" stroke="#000000" cx="2432.6909" cy="-162" rx="82.5854" ry="18"/>
<text text-anchor="middle" x="2432.6909" y="-158.3" font-family="Times,serif" font-size="14.00" fill="#000000">floatingip&#45;pools</text>
</g>
<!-- floatingip&#45;pools&#45;&gt;router -->
<g id="edge23" class="edge">
<title>floatingip&#45;pools&#45;&gt;router</title>
<path fill="none" stroke="#000000" d="M2372.9583,-149.4087C2362.2465,-147.4092 2351.1618,-145.507 2340.6909,-144 2145.3113,-115.8798 1910.7564,-99.2821 1809.8556,-92.9577"/>
<polygon fill="#000000" stroke="#000000" points="1809.8505,-89.4507 1799.653,-92.3247 1809.4171,-96.4373 1809.8505,-89.4507"/>
</g>
<!-- qos&#45;rule&#45;type&#45;details -->
<g id="node31" class="node">
<title>qos&#45;rule&#45;type&#45;details</title>
<ellipse fill="none" stroke="#000000" cx="4840.6909" cy="-306" rx="105.8812" ry="18"/>
<text text-anchor="middle" x="4840.6909" y="-302.3" font-family="Times,serif" font-size="14.00" fill="#000000">qos&#45;rule&#45;type&#45;details</text>
</g>
<!-- qos&#45;rule&#45;type&#45;details&#45;&gt;qos -->
<g id="edge24" class="edge">
<title>qos&#45;rule&#45;type&#45;details&#45;&gt;qos</title>
<path fill="none" stroke="#000000" d="M4798.0187,-289.4817C4764.4364,-276.4821 4718.325,-258.6326 4687.5684,-246.7268"/>
<polygon fill="#000000" stroke="#000000" points="4688.7465,-243.4298 4678.1574,-243.0838 4686.2195,-249.9578 4688.7465,-243.4298"/>
</g>
<!-- default&#45;subnetpools -->
<g id="node32" class="node">
<title>default&#45;subnetpools</title>
<ellipse fill="none" stroke="#000000" cx="102.6909" cy="-162" rx="102.8821" ry="18"/>
<text text-anchor="middle" x="102.6909" y="-158.3" font-family="Times,serif" font-size="14.00" fill="#000000">default&#45;subnetpools</text>
</g>
<!-- default&#45;subnetpools&#45;&gt;subnet_allocation -->
<g id="edge25" class="edge">
<title>default&#45;subnetpools&#45;&gt;subnet_allocation</title>
<path fill="none" stroke="#000000" d="M148.9213,-145.8418C179.8823,-135.0205 220.7954,-120.7207 253.4687,-109.301"/>
<polygon fill="#000000" stroke="#000000" points="255.0388,-112.4599 263.324,-105.8564 252.7291,-105.8519 255.0388,-112.4599"/>
</g>
<!-- sort&#45;key&#45;validation -->
<g id="node33" class="node">
<title>sort&#45;key&#45;validation</title>
<ellipse fill="none" stroke="#000000" cx="5133.6909" cy="-306" rx="97.4827" ry="18"/>
<text text-anchor="middle" x="5133.6909" y="-302.3" font-family="Times,serif" font-size="14.00" fill="#000000">sort&#45;key&#45;validation</text>
</g>
<!-- sorting -->
<g id="node34" class="node">
<title>sorting</title>
<ellipse fill="none" stroke="#000000" cx="5133.6909" cy="-234" rx="44.393" ry="18"/>
<text text-anchor="middle" x="5133.6909" y="-230.3" font-family="Times,serif" font-size="14.00" fill="#000000">sorting</text>
</g>
<!-- sort&#45;key&#45;validation&#45;&gt;sorting -->
<g id="edge26" class="edge">
<title>sort&#45;key&#45;validation&#45;&gt;sorting</title>
<path fill="none" stroke="#000000" d="M5133.6909,-287.8314C5133.6909,-280.131 5133.6909,-270.9743 5133.6909,-262.4166"/>
<polygon fill="#000000" stroke="#000000" points="5137.191,-262.4132 5133.6909,-252.4133 5130.191,-262.4133 5137.191,-262.4132"/>
</g>
<!-- dhcp_agent_scheduler -->
<g id="node35" class="node">
<title>dhcp_agent_scheduler</title>
<ellipse fill="none" stroke="#000000" cx="3453.6909" cy="-90" rx="115.8798" ry="18"/>
<text text-anchor="middle" x="3453.6909" y="-86.3" font-family="Times,serif" font-size="14.00" fill="#000000">dhcp_agent_scheduler</text>
</g>
<!-- dhcp_agent_scheduler&#45;&gt;agent -->
<g id="edge27" class="edge">
<title>dhcp_agent_scheduler&#45;&gt;agent</title>
<path fill="none" stroke="#000000" d="M3426.5372,-72.3868C3410.616,-62.0595 3390.4405,-48.9727 3373.8703,-38.2245"/>
<polygon fill="#000000" stroke="#000000" points="3375.3799,-35.0319 3365.0856,-32.5263 3371.5705,-40.9046 3375.3799,-35.0319"/>
</g>
<!-- revision&#45;if&#45;match -->
<g id="node36" class="node">
<title>revision&#45;if&#45;match</title>
<ellipse fill="none" stroke="#000000" cx="5338.6909" cy="-306" rx="89.0842" ry="18"/>
<text text-anchor="middle" x="5338.6909" y="-302.3" font-family="Times,serif" font-size="14.00" fill="#000000">revision&#45;if&#45;match</text>
</g>
<!-- standard&#45;attr&#45;revisions -->
<g id="node37" class="node">
<title>standard&#45;attr&#45;revisions</title>
<ellipse fill="none" stroke="#000000" cx="5338.6909" cy="-234" rx="117.7793" ry="18"/>
<text text-anchor="middle" x="5338.6909" y="-230.3" font-family="Times,serif" font-size="14.00" fill="#000000">standard&#45;attr&#45;revisions</text>
</g>
<!-- revision&#45;if&#45;match&#45;&gt;standard&#45;attr&#45;revisions -->
<g id="edge28" class="edge">
<title>revision&#45;if&#45;match&#45;&gt;standard&#45;attr&#45;revisions</title>
<path fill="none" stroke="#000000" d="M5338.6909,-287.8314C5338.6909,-280.131 5338.6909,-270.9743 5338.6909,-262.4166"/>
<polygon fill="#000000" stroke="#000000" points="5342.191,-262.4132 5338.6909,-252.4133 5335.191,-262.4133 5342.191,-262.4132"/>
</g>
<!-- standard&#45;attr&#45;segment -->
<g id="node38" class="node">
<title>standard&#45;attr&#45;segment</title>
<ellipse fill="none" stroke="#000000" cx="5561.6909" cy="-306" rx="115.8798" ry="18"/>
<text text-anchor="middle" x="5561.6909" y="-302.3" font-family="Times,serif" font-size="14.00" fill="#000000">standard&#45;attr&#45;segment</text>
</g>
<!-- segment -->
<g id="node39" class="node">
<title>segment</title>
<ellipse fill="none" stroke="#000000" cx="5831.6909" cy="-234" rx="50.8918" ry="18"/>
<text text-anchor="middle" x="5831.6909" y="-230.3" font-family="Times,serif" font-size="14.00" fill="#000000">segment</text>
</g>
<!-- standard&#45;attr&#45;segment&#45;&gt;segment -->
<g id="edge29" class="edge">
<title>standard&#45;attr&#45;segment&#45;&gt;segment</title>
<path fill="none" stroke="#000000" d="M5620.2769,-290.3771C5668.2488,-277.5846 5735.4155,-259.6734 5781.0781,-247.4967"/>
<polygon fill="#000000" stroke="#000000" points="5782.0057,-250.8718 5790.7662,-244.9132 5780.202,-244.1081 5782.0057,-250.8718"/>
</g>
<!-- router_availability_zone -->
<g id="node40" class="node">
<title>router_availability_zone</title>
<ellipse fill="none" stroke="#000000" cx="2974.6909" cy="-162" rx="122.3786" ry="18"/>
<text text-anchor="middle" x="2974.6909" y="-158.3" font-family="Times,serif" font-size="14.00" fill="#000000">router_availability_zone</text>
</g>
<!-- router_availability_zone&#45;&gt;router -->
<g id="edge30" class="edge">
<title>router_availability_zone&#45;&gt;router</title>
<path fill="none" stroke="#000000" d="M2888.8454,-149.119C2873.8213,-147.1752 2858.3195,-145.3668 2843.6909,-144 2446.6368,-106.9023 1965.2229,-94.2364 1810.2959,-90.9607"/>
<polygon fill="#000000" stroke="#000000" points="1810.2094,-87.4582 1800.1388,-90.7496 1810.0638,-94.4567 1810.2094,-87.4582"/>
</g>
<!-- router_availability_zone&#45;&gt;availability_zone -->
<g id="edge31" class="edge">
<title>router_availability_zone&#45;&gt;availability_zone</title>
<path fill="none" stroke="#000000" d="M3031.7275,-146.0209C3072.6618,-134.5529 3127.7825,-119.1105 3169.7853,-107.3432"/>
<polygon fill="#000000" stroke="#000000" points="3170.9352,-110.6559 3179.6202,-104.5879 3169.0468,-103.9154 3170.9352,-110.6559"/>
</g>
<!-- extraroute -->
<g id="node41" class="node">
<title>extraroute</title>
<ellipse fill="none" stroke="#000000" cx="2592.6909" cy="-162" rx="59.5901" ry="18"/>
<text text-anchor="middle" x="2592.6909" y="-158.3" font-family="Times,serif" font-size="14.00" fill="#000000">extraroute</text>
</g>
<!-- extraroute&#45;&gt;router -->
<g id="edge33" class="edge">
<title>extraroute&#45;&gt;router</title>
<path fill="none" stroke="#000000" d="M2549.7896,-149.3372C2541.5207,-147.2688 2532.8829,-145.3609 2524.6909,-144 2386.3255,-121.0141 1957.5323,-99.2863 1810.0913,-92.3156"/>
<polygon fill="#000000" stroke="#000000" points="1810.1231,-88.8133 1799.9696,-91.8394 1809.794,-95.8055 1810.1231,-88.8133"/>
</g>
<!-- dns&#45;integration -->
<g id="node42" class="node">
<title>dns&#45;integration</title>
<ellipse fill="none" stroke="#000000" cx="2752.6909" cy="-162" rx="81.7856" ry="18"/>
<text text-anchor="middle" x="2752.6909" y="-158.3" font-family="Times,serif" font-size="14.00" fill="#000000">dns&#45;integration</text>
</g>
<!-- dns&#45;integration&#45;&gt;router -->
<g id="edge34" class="edge">
<title>dns&#45;integration&#45;&gt;router</title>
<path fill="none" stroke="#000000" d="M2694.6283,-149.2976C2683.727,-147.2594 2672.3934,-145.3724 2661.6909,-144 2339.4292,-102.6749 1948.2435,-92.8718 1810.5682,-90.6346"/>
<polygon fill="#000000" stroke="#000000" points="1810.3834,-87.1314 1800.3299,-90.4748 1810.274,-94.1306 1810.3834,-87.1314"/>
</g>
<!-- router&#45;interface&#45;fip -->
<g id="node43" class="node">
<title>router&#45;interface&#45;fip</title>
<ellipse fill="none" stroke="#000000" cx="895.6909" cy="-162" rx="100.1823" ry="18"/>
<text text-anchor="middle" x="895.6909" y="-158.3" font-family="Times,serif" font-size="14.00" fill="#000000">router&#45;interface&#45;fip</text>
</g>
<!-- router&#45;interface&#45;fip&#45;&gt;router -->
<g id="edge35" class="edge">
<title>router&#45;interface&#45;fip&#45;&gt;router</title>
<path fill="none" stroke="#000000" d="M967.1554,-149.3408C979.9582,-147.3486 993.1984,-145.4664 1005.6909,-144 1269.7599,-113.003 1588.0929,-97.2474 1709.4173,-92.0227"/>
<polygon fill="#000000" stroke="#000000" points="1709.6753,-95.515 1719.5173,-91.5926 1709.3774,-88.5213 1709.6753,-95.515"/>
</g>
<!-- dns&#45;domain&#45;ports -->
<g id="node44" class="node">
<title>dns&#45;domain&#45;ports</title>
<ellipse fill="none" stroke="#000000" cx="3614.6909" cy="-234" rx="91.784" ry="18"/>
<text text-anchor="middle" x="3614.6909" y="-230.3" font-family="Times,serif" font-size="14.00" fill="#000000">dns&#45;domain&#45;ports</text>
</g>
<!-- dns&#45;domain&#45;ports&#45;&gt;dns&#45;integration -->
<g id="edge36" class="edge">
<title>dns&#45;domain&#45;ports&#45;&gt;dns&#45;integration</title>
<path fill="none" stroke="#000000" d="M3549.9375,-221.2474C3537.9255,-219.2271 3525.4569,-217.3594 3513.6909,-216 3217.4541,-181.7749 3139.5908,-217.0252 2843.6909,-180 2836.2464,-179.0685 2828.4979,-177.8799 2820.8025,-176.5587"/>
<polygon fill="#000000" stroke="#000000" points="2821.2074,-173.0756 2810.7467,-174.7559 2819.9721,-179.9657 2821.2074,-173.0756"/>
</g>
<!-- subnet_onboard -->
<g id="node45" class="node">
<title>subnet_onboard</title>
<ellipse fill="none" stroke="#000000" cx="308.6909" cy="-162" rx="85.2851" ry="18"/>
<text text-anchor="middle" x="308.6909" y="-158.3" font-family="Times,serif" font-size="14.00" fill="#000000">subnet_onboard</text>
</g>
<!-- subnet_onboard&#45;&gt;subnet_allocation -->
<g id="edge37" class="edge">
<title>subnet_onboard&#45;&gt;subnet_allocation</title>
<path fill="none" stroke="#000000" d="M308.6909,-143.8314C308.6909,-136.131 308.6909,-126.9743 308.6909,-118.4166"/>
<polygon fill="#000000" stroke="#000000" points="312.191,-118.4132 308.6909,-108.4133 305.191,-118.4133 312.191,-118.4132"/>
</g>
<!-- fip64 -->
<g id="node46" class="node">
<title>fip64</title>
<ellipse fill="none" stroke="#000000" cx="1048.6909" cy="-162" rx="34.394" ry="18"/>
<text text-anchor="middle" x="1048.6909" y="-158.3" font-family="Times,serif" font-size="14.00" fill="#000000">fip64</text>
</g>
<!-- fip64&#45;&gt;router -->
<g id="edge38" class="edge">
<title>fip64&#45;&gt;router</title>
<path fill="none" stroke="#000000" d="M1074.7796,-149.7948C1080.5681,-147.5223 1086.7506,-145.4194 1092.6909,-144 1209.8389,-116.0076 1574.7866,-97.9349 1709.2695,-92.0767"/>
<polygon fill="#000000" stroke="#000000" points="1709.4627,-95.5717 1719.3024,-91.6437 1709.1608,-88.5782 1709.4627,-95.5717"/>
</g>
<!-- router&#45;service&#45;type -->
<g id="node47" class="node">
<title>router&#45;service&#45;type</title>
<ellipse fill="none" stroke="#000000" cx="1201.6909" cy="-162" rx="100.1823" ry="18"/>
<text text-anchor="middle" x="1201.6909" y="-158.3" font-family="Times,serif" font-size="14.00" fill="#000000">router&#45;service&#45;type</text>
</g>
<!-- router&#45;service&#45;type&#45;&gt;router -->
<g id="edge39" class="edge">
<title>router&#45;service&#45;type&#45;&gt;router</title>
<path fill="none" stroke="#000000" d="M1274.3256,-149.5488C1286.455,-147.6007 1298.9185,-145.6791 1310.6909,-144 1455.4819,-123.3482 1627.2987,-104.1587 1710.1431,-95.2385"/>
<polygon fill="#000000" stroke="#000000" points="1710.7061,-98.6982 1720.2755,-94.151 1709.9591,-91.7382 1710.7061,-98.6982"/>
</g>
<!-- bgpvpn&#45;routes&#45;control -->
<g id="node48" class="node">
<title>bgpvpn&#45;routes&#45;control</title>
<ellipse fill="none" stroke="#000000" cx="2164.6909" cy="-234" rx="114.2798" ry="18"/>
<text text-anchor="middle" x="2164.6909" y="-230.3" font-family="Times,serif" font-size="14.00" fill="#000000">bgpvpn&#45;routes&#45;control</text>
</g>
<!-- bgpvpn&#45;routes&#45;control&#45;&gt;bgpvpn -->
<g id="edge40" class="edge">
<title>bgpvpn&#45;routes&#45;control&#45;&gt;bgpvpn</title>
<path fill="none" stroke="#000000" d="M2194.2237,-216.5708C2211.7986,-206.1987 2234.1725,-192.9945 2252.5094,-182.1727"/>
<polygon fill="#000000" stroke="#000000" points="2254.315,-185.1712 2261.1482,-177.0744 2250.7572,-179.1427 2254.315,-185.1712"/>
</g>
<!-- subnet&#45;segmentid&#45;writable -->
<g id="node49" class="node">
<title>subnet&#45;segmentid&#45;writable</title>
<ellipse fill="none" stroke="#000000" cx="5831.6909" cy="-306" rx="135.6761" ry="18"/>
<text text-anchor="middle" x="5831.6909" y="-302.3" font-family="Times,serif" font-size="14.00" fill="#000000">subnet&#45;segmentid&#45;writable</text>
</g>
<!-- subnet&#45;segmentid&#45;writable&#45;&gt;segment -->
<g id="edge41" class="edge">
<title>subnet&#45;segmentid&#45;writable&#45;&gt;segment</title>
<path fill="none" stroke="#000000" d="M5831.6909,-287.8314C5831.6909,-280.131 5831.6909,-270.9743 5831.6909,-262.4166"/>
<polygon fill="#000000" stroke="#000000" points="5835.191,-262.4132 5831.6909,-252.4133 5828.191,-262.4133 5835.191,-262.4132"/>
</g>
<!-- fip&#45;port&#45;details -->
<g id="node50" class="node">
<title>fip&#45;port&#45;details</title>
<ellipse fill="none" stroke="#000000" cx="1398.6909" cy="-162" rx="79.0865" ry="18"/>
<text text-anchor="middle" x="1398.6909" y="-158.3" font-family="Times,serif" font-size="14.00" fill="#000000">fip&#45;port&#45;details</text>
</g>
<!-- fip&#45;port&#45;details&#45;&gt;router -->
<g id="edge42" class="edge">
<title>fip&#45;port&#45;details&#45;&gt;router</title>
<path fill="none" stroke="#000000" d="M1457.8501,-149.8445C1467.4875,-147.88 1477.3653,-145.876 1486.6909,-144 1565.8962,-128.0661 1658.1114,-109.9076 1712.544,-99.2295"/>
<polygon fill="#000000" stroke="#000000" points="1713.4444,-102.6197 1722.584,-97.2607 1712.0973,-95.7505 1713.4444,-102.6197"/>
</g>
<!-- standard&#45;attr&#45;bgpvpn -->
<g id="node51" class="node">
<title>standard&#45;attr&#45;bgpvpn</title>
<ellipse fill="none" stroke="#000000" cx="2407.6909" cy="-234" rx="110.4804" ry="18"/>
<text text-anchor="middle" x="2407.6909" y="-230.3" font-family="Times,serif" font-size="14.00" fill="#000000">standard&#45;attr&#45;bgpvpn</text>
</g>
<!-- standard&#45;attr&#45;bgpvpn&#45;&gt;bgpvpn -->
<g id="edge43" class="edge">
<title>standard&#45;attr&#45;bgpvpn&#45;&gt;bgpvpn</title>
<path fill="none" stroke="#000000" d="M2378.4002,-216.5708C2361.1278,-206.293 2339.1819,-193.2343 2321.0892,-182.4684"/>
<polygon fill="#000000" stroke="#000000" points="2322.4077,-179.1802 2312.0242,-177.0744 2318.8281,-185.1958 2322.4077,-179.1802"/>
</g>
<!-- dvr -->
<g id="node52" class="node">
<title>dvr</title>
<ellipse fill="none" stroke="#000000" cx="1522.6909" cy="-162" rx="27" ry="18"/>
<text text-anchor="middle" x="1522.6909" y="-158.3" font-family="Times,serif" font-size="14.00" fill="#000000">dvr</text>
</g>
<!-- dvr&#45;&gt;router -->
<g id="edge44" class="edge">
<title>dvr&#45;&gt;router</title>
<path fill="none" stroke="#000000" d="M1543.6931,-150.6145C1548.5367,-148.2386 1553.7264,-145.886 1558.6909,-144 1610.3352,-124.3807 1671.9873,-108.9347 1713.2717,-99.6752"/>
<polygon fill="#000000" stroke="#000000" points="1714.0432,-103.0892 1723.0513,-97.5121 1712.5314,-96.2544 1714.0432,-103.0892"/>
</g>
<!-- ext&#45;gw&#45;mode -->
<g id="node53" class="node">
<title>ext&#45;gw&#45;mode</title>
<ellipse fill="none" stroke="#000000" cx="1637.6909" cy="-162" rx="70.3881" ry="18"/>
<text text-anchor="middle" x="1637.6909" y="-158.3" font-family="Times,serif" font-size="14.00" fill="#000000">ext&#45;gw&#45;mode</text>
</g>
<!-- ext&#45;gw&#45;mode&#45;&gt;router -->
<g id="edge45" class="edge">
<title>ext&#45;gw&#45;mode&#45;&gt;router</title>
<path fill="none" stroke="#000000" d="M1665.6802,-145.4817C1683.7779,-134.8011 1707.4232,-120.8465 1726.4722,-109.6045"/>
<polygon fill="#000000" stroke="#000000" points="1728.3033,-112.5879 1735.1365,-104.4911 1724.7455,-106.5595 1728.3033,-112.5879"/>
</g>
<!-- standard&#45;attr&#45;bgpvpn&#45;network&#45;association -->
<g id="node54" class="node">
<title>standard&#45;attr&#45;bgpvpn&#45;network&#45;association</title>
<ellipse fill="none" stroke="#000000" cx="2742.6909" cy="-234" rx="206.8635" ry="18"/>
<text text-anchor="middle" x="2742.6909" y="-230.3" font-family="Times,serif" font-size="14.00" fill="#000000">standard&#45;attr&#45;bgpvpn&#45;network&#45;association</text>
</g>
<!-- standard&#45;attr&#45;bgpvpn&#45;network&#45;association&#45;&gt;bgpvpn -->
<g id="edge46" class="edge">
<title>standard&#45;attr&#45;bgpvpn&#45;network&#45;association&#45;&gt;bgpvpn</title>
<path fill="none" stroke="#000000" d="M2597.3046,-221.1433C2520.388,-212.6689 2424.7281,-199.4677 2340.6909,-180 2337.1108,-179.1706 2333.4313,-178.2024 2329.7569,-177.1532"/>
<polygon fill="#000000" stroke="#000000" points="2330.6995,-173.7817 2320.114,-174.2262 2328.6663,-180.4799 2330.6995,-173.7817"/>
</g>
<!-- trunk -->
<g id="node55" class="node">
<title>trunk</title>
<ellipse fill="none" stroke="#000000" cx="4260.6909" cy="-234" rx="36.2938" ry="18"/>
<text text-anchor="middle" x="4260.6909" y="-230.3" font-family="Times,serif" font-size="14.00" fill="#000000">trunk</text>
</g>
<!-- trunk&#45;&gt;binding -->
<g id="edge47" class="edge">
<title>trunk&#45;&gt;binding</title>
<path fill="none" stroke="#000000" d="M4244.1261,-217.6621C4234.6479,-208.3138 4222.5828,-196.4139 4212.043,-186.0185"/>
<polygon fill="#000000" stroke="#000000" points="4214.2742,-183.3032 4204.6968,-178.7729 4209.3587,-188.287 4214.2742,-183.3032"/>
</g>
<!-- l3&#45;ha -->
<g id="node56" class="node">
<title>l3&#45;ha</title>
<ellipse fill="none" stroke="#000000" cx="1759.6909" cy="-162" rx="33.5952" ry="18"/>
<text text-anchor="middle" x="1759.6909" y="-158.3" font-family="Times,serif" font-size="14.00" fill="#000000">l3&#45;ha</text>
</g>
<!-- l3&#45;ha&#45;&gt;router -->
<g id="edge48" class="edge">
<title>l3&#45;ha&#45;&gt;router</title>
<path fill="none" stroke="#000000" d="M1759.6909,-143.8314C1759.6909,-136.131 1759.6909,-126.9743 1759.6909,-118.4166"/>
<polygon fill="#000000" stroke="#000000" points="1763.191,-118.4132 1759.6909,-108.4133 1756.191,-118.4133 1763.191,-118.4132"/>
</g>
<!-- standard&#45;attr&#45;bgpvpn&#45;port&#45;association -->
<g id="node57" class="node">
<title>standard&#45;attr&#45;bgpvpn&#45;port&#45;association</title>
<ellipse fill="none" stroke="#000000" cx="2164.6909" cy="-306" rx="187.6668" ry="18"/>
<text text-anchor="middle" x="2164.6909" y="-302.3" font-family="Times,serif" font-size="14.00" fill="#000000">standard&#45;attr&#45;bgpvpn&#45;port&#45;association</text>
</g>
<!-- standard&#45;attr&#45;bgpvpn&#45;port&#45;association&#45;&gt;bgpvpn&#45;routes&#45;control -->
<g id="edge49" class="edge">
<title>standard&#45;attr&#45;bgpvpn&#45;port&#45;association&#45;&gt;bgpvpn&#45;routes&#45;control</title>
<path fill="none" stroke="#000000" d="M2164.6909,-287.8314C2164.6909,-280.131 2164.6909,-270.9743 2164.6909,-262.4166"/>
<polygon fill="#000000" stroke="#000000" points="2168.191,-262.4132 2164.6909,-252.4133 2161.191,-262.4133 2168.191,-262.4132"/>
</g>
<!-- segments&#45;peer&#45;subnet&#45;host&#45;routes -->
<g id="node58" class="node">
<title>segments&#45;peer&#45;subnet&#45;host&#45;routes</title>
<ellipse fill="none" stroke="#000000" cx="6154.6909" cy="-306" rx="169.77" ry="18"/>
<text text-anchor="middle" x="6154.6909" y="-302.3" font-family="Times,serif" font-size="14.00" fill="#000000">segments&#45;peer&#45;subnet&#45;host&#45;routes</text>
</g>
<!-- segments&#45;peer&#45;subnet&#45;host&#45;routes&#45;&gt;segment -->
<g id="edge50" class="edge">
<title>segments&#45;peer&#45;subnet&#45;host&#45;routes&#45;&gt;segment</title>
<path fill="none" stroke="#000000" d="M6081.3972,-289.6621C6021.5949,-276.3316 5938.5162,-257.8125 5884.9235,-245.8661"/>
<polygon fill="#000000" stroke="#000000" points="5885.4651,-242.401 5874.9431,-243.6414 5883.942,-249.2333 5885.4651,-242.401"/>
</g>
<!-- trunk&#45;details -->
<g id="node59" class="node">
<title>trunk&#45;details</title>
<ellipse fill="none" stroke="#000000" cx="4260.6909" cy="-306" rx="70.6878" ry="18"/>
<text text-anchor="middle" x="4260.6909" y="-302.3" font-family="Times,serif" font-size="14.00" fill="#000000">trunk&#45;details</text>
</g>
<!-- trunk&#45;details&#45;&gt;trunk -->
<g id="edge51" class="edge">
<title>trunk&#45;details&#45;&gt;trunk</title>
<path fill="none" stroke="#000000" d="M4260.6909,-287.8314C4260.6909,-280.131 4260.6909,-270.9743 4260.6909,-262.4166"/>
<polygon fill="#000000" stroke="#000000" points="4264.191,-262.4132 4260.6909,-252.4133 4257.191,-262.4133 4264.191,-262.4132"/>
</g>
</g>
</svg>
